<?xml version="1.0" encoding="utf-8"?>

<!DOCTYPE svg PUBLIC "-//W3C//DTD SVG 1.1//EN" "http://www.w3.org/Graphics/SVG/1.1/DTD/svg11.dtd">
<svg version="1.1" class="Ebene_1" xmlns="http://www.w3.org/2000/svg" xmlns:xlink="http://www.w3.org/1999/xlink" x="0px" y="0px"
	  viewBox="0 0 1024 768" enable-background="new 0 0 1024 768" xml:space="preserve">
<g class="Ebene_1_1_">
	<polygon fill="#262503" stroke="#FFFFFF" stroke-miterlimit="10" points="1035.384,774.5 3.302,774.5 138.835,77.5 870.898,77.5 	
		"/>
	<path fill="#276D0A" d="M180.555,104.256l-35.292,149.569c18.463,2.565,36.927,2.012,55.39,1.919
		c0.082-12.15,31.951-21.992,71.256-21.992c39.277,0,71.127,9.829,71.252,21.967c9.944,5.482,21.732,3.589,32.508,5.744
		c2.292,0,5.73,2.292,6.876,2.292c44.695,4.584,89.39-3.438,128.354,18.336c22.921,12.605,44.694,25.212,69.907,25.212
		c0.608,0,1.19,0.084,1.751,0.23c6.606-10.058,35.358-17.627,69.829-17.627c38.867,0,70.443,9.626,71.223,21.588
		c39.496-8.416,79.012,2.543,119.637-6.483c7.811-1.859,15.622-2.864,23.472-3.31l-49.405-197.445H180.555z"/>
	<g class="mole ">
		<path fill="#414042" d="M345.998,282.42H196.6c0,0,1.001-13.928,9.501-19.391c8.466-5.461,10.696-9.08,8.693-20.004
			c-2.004-10.923,0.388-20.391,10.083-34.319c9.695-13.929,3.103,1.52,3.103,1.52s-9.953-7.788-9.565-14.251
			c0.387-6.464,3.426-11.117,7.271-11.505c3.846-0.421,7.885,3.426,7.885,3.426s4.848-10.31,29.892-16.352
			c24.594-5.946,8.273-15.416,7.691-15.738c0.421,0.129,10.245,3.36,9.082,9.274c-1.229,6.074,2.843-5.235,11.117-2.618
			c8.273,2.618-9.501-2.23-4.461,7.465c0,0,4.04-5.235,12.12-1.421c0,0-5.656,0-7.271,3.329
			c-1.616,3.328,11.505-4.945,22.622,16.061l1.195,2.423c0,0,0.613-5.46,5.042-5.849c4.426-0.421,11.923,9.274,6.85,16.965
			c-5.042,7.66-7.69,2.813-2.618,11.505c5.042,8.693,15.739,21.814,7.659,41.397c0,0-3.038,2.004,4.234,11.925
			C343.994,276.183,345.998,282.42,345.998,282.42z"/>
		<path fill="#58595B" d="M210.431,277.476c21.522,0,101.441-0.42,114.755-12.216c-0.452-2.198,4.104-14.057,4.104-14.057
			c7.562-18.356-2.456-30.668-7.174-38.813c-4.717-8.144-0.421-3.62,4.33-10.793c4.718-7.206-1.68-17.483-5.85-17.127
			c-4.167,0.387-7.174,6.722-7.174,6.722l-1.13-2.262c-10.406-19.681-22.719-11.925-21.201-15.027
			c1.52-3.135,7.466-5.559,7.466-5.559c-7.563-3.587-11.667,1.616-11.667,1.616c-4.718-9.081,12.216-5.01,4.461-7.466
			c-7.757-2.456-12.248,8.306-11.117,2.618c1.098-5.559-7.853-8.854-8.241-8.984c0.549,0.323,15.674,11.925-7.368,17.482
			c-23.462,5.688-30.216,16.386-30.216,16.386s-3.749-3.878-7.368-3.491c-3.587,0.388-6.915,3.716-7.303,9.792
			c-0.324,5.365,7.884,10.471,9.145,11.505c-0.129,0.194-0.291,0.42-0.453,0.647c-9.081,13.055-11.343,21.941-9.469,32.186
			c0.97,5.268,0.905,8.726-0.517,11.57C217.928,272.596,187.777,277.476,210.431,277.476z"/>
		<path opacity="0.32" fill="#939598" enable-background="new    " d="M233.408,187.831l0.388,0.322
			c1.066-1.81,8.531-10.212,30.927-15.608c22.104-5.364,11.149-13.541,8.273-15.383c3.491,3.264,6.431,9.178-10.858,13.379
			c-25.046,6.075-28.665,17.224-28.665,17.224"/>
		<path fill="#BCBEC0" d="M224.262,183.08"/>
		<path fill="#EAA98B" d="M287.958,265.777c0,0-4.332,5.105-9.921,5.105c-5.59,0-14.897-5.493-14.897-5.493
			s-38.941,1.583-38.554-23.753c0.389-25.303,27.469-20.198,27.469-20.198s8.629-3.521,7.854-9.016c0,0,13.347,12.539,26.693,0
			c0,0,3.135,8.629,9.016,9.016c5.881,0.389,23.526-3.91,28.244,16.094C328.579,257.537,301.11,265.39,287.958,265.777z"/>
		<ellipse cx="276.259" cy="208.287" rx="15.706" ry="9.63"/>
		<ellipse fill="#414042" cx="273.965" cy="208.287" rx="15.705" ry="9.63"/>
		<g>
			<path fill="#414042" d="M246.657,211.486c2.068,0.484,3.943,1.066,5.171,2.067c-0.905-0.063-1.648-0.063-2.327,0
				c-1.098-0.548-2.423-1.098-3.91-1.486c-3.587-0.937-5.074-0.969-5.461-0.969C240.775,211.065,244.073,210.904,246.657,211.486z"
				/>
			<path fill="#414042" d="M247.013,212.456c2.133,0.097,4.072,0.355,5.429,1.163c-0.905,0.064-1.649,0.228-2.263,0.421
				c-1.163-0.356-2.553-0.646-4.104-0.775c-3.717-0.291-5.171-0.096-5.558,0C241.164,213.038,244.363,212.294,247.013,212.456z"/>
			<path fill="#414042" d="M300.367,211.938c-2.069,0.484-3.943,1.066-5.172,2.068c0.905-0.065,1.648-0.065,2.328,0
				c1.098-0.55,2.424-1.1,3.91-1.486c3.587-0.938,5.073-0.97,5.461-0.97C306.216,211.55,302.952,211.356,300.367,211.938z"/>
			<path fill="#414042" d="M300.011,212.908c-2.133,0.097-4.072,0.355-5.428,1.163c0.904,0.064,1.647,0.228,2.261,0.421
				c1.164-0.356,2.553-0.646,4.105-0.775c3.715-0.29,5.169-0.098,5.558,0C305.861,213.522,302.629,212.779,300.011,212.908z"/>
		</g>
		<ellipse cx="282.885" cy="208.771" rx="5.298" ry="2.036"/>
		<ellipse cx="265.497" cy="208.287" rx="5.301" ry="2.036"/>
		<path fill="#753919" d="M274.256,250.363c0,0,2.003-3.167,5.235-2.844c3.264,0.356,3.394,3.231,3.394,3.231
			s5.719-7.498,4.491-6.205c-0.841,0.905-23.333,3.521-28.859-0.259c0,0,3.975,4.362,4.04,5.624c0.097,1.259,0.614-1.067,6.27-2.619
			c0,0,3.264-0.419,5.171,3.104"/>
		<path fill="#C9795B" d="M281.656,253.142c0.129-0.291,0.258-0.582,0.388-0.904l0.841-1.519c-0.26-2.005-2.263-3.394-4.138-3.265
			c-1.875,0.128-3.522,1.455-4.653,3.069c-0.355-2.197-2.682-3.521-4.717-3.36c-2.069,0.13-5.009,1.81-6.755,2.974
			c0,0,1.196,1.519,1.907,2.972h17.127V253.142L281.656,253.142z"/>
		<path fill="#F3CCBC" d="M282.885,251.816c-0.26-2.003-2.263-3.393-4.138-3.264s-3.522,1.454-4.653,3.07
			c-0.356-2.197-2.682-3.522-4.717-3.361c-2.069,0.162-4.493,1.714-6.237,2.909c0,0,1.583,3.716,2.391,5.042
			c0.808,1.324,2.036,3.07,2.974,4.491c0.937,1.39,8.401,5.363,13.573-7.336"/>
		<path fill="none" stroke="#000000" stroke-width="0.3232" stroke-miterlimit="10" d="M217.928,239.73
			c0,0,13.088-16.708,26.951-10.891"/>
		<path fill="none" stroke="#000000" stroke-width="0.3232" stroke-miterlimit="10" d="M216.28,258.603
			c0,0,8.532-25.853,27.76-24.916"/>
		<path fill="none" stroke="#000000" stroke-width="0.3232" stroke-miterlimit="10" d="M322.148,238.244
			c0,0-13.089-16.708-26.952-10.892"/>
		<path fill="none" stroke="#000000" stroke-width="0.3232" stroke-miterlimit="10" d="M323.796,257.149
			c0,0-8.53-25.853-27.759-24.916"/>
		<ellipse fill="#EAA98B" cx="230.176" cy="196.297" rx="5.106" ry="7.045"/>
		<ellipse fill="#EAA98B" cx="320.047" cy="195.973" rx="5.106" ry="7.045"/>
		<path class="Oberlippe_4_" fill="#C9795B" d="M274.159,245.709c-12.927,0.226-23.559-4.201-24.172-9.986
			c0,0.129-0.033,0.291-0.033,0.421c0.097,6.011,10.955,10.665,24.205,10.438c13.25-0.228,23.914-5.301,23.817-11.313
			c0-0.128-0.033-0.29-0.033-0.419C297.556,240.667,287.086,245.483,274.159,245.709z"/>
		<g class="Mund_4_">
			<path fill="none" stroke="#C9795B" stroke-width="0.3232" stroke-miterlimit="10" d="M255.835,242.833
				c0,0,5.268,2.166,8.854,12.021c3.619,9.857,10.471,7.207,10.471,7.207"/>
			<path fill="none" stroke="#C9795B" stroke-width="0.3232" stroke-miterlimit="10" d="M290.316,242.833
				c0,0-5.267,2.166-8.854,12.021c-3.619,9.857-10.471,7.207-10.471,7.207"/>
			<path fill="none" stroke="#C9795B" stroke-width="0.3232" stroke-miterlimit="10" d="M264.689,254.854
				c3.619,9.857,10.471,7.207,10.471,7.207"/>
		</g>
		<g class="Augenbraue-rechts_4_">
			<path class="Augenbraue_x5F_rechs_4_" d="M299.494,202.501c-2.132,0.324-4.039,0.906-5.332,2.553
				c0.905,0.097,1.648,0.355,2.294,0.679c1.132-0.775,2.488-1.422,4.041-1.776c3.683-0.809,5.137-0.453,5.525-0.323
				C305.375,203.406,302.112,202.114,299.494,202.501z"/>
		</g>
		<g class="Augenbraue-links_4_">
			<path class="Augenbraue_x5F_links_4_" d="M248.758,202.501c2.133,0.324,4.04,0.906,5.333,2.553
				c-0.906,0.097-1.648,0.355-2.295,0.679c-1.131-0.775-2.488-1.422-4.04-1.776c-3.684-0.809-5.138-0.453-5.526-0.323
				C242.876,203.406,246.14,202.114,248.758,202.501z"/>
		</g>
	</g>
	<g class="mole mole_4_">
		<path fill="#414042" d="M727.115,339.531H577.717c0,0,1.002-13.928,9.502-19.39c8.465-5.461,10.695-9.081,8.692-20.004
			c-2.004-10.923,0.389-20.391,10.083-34.32c9.693-13.928,3.102,1.521,3.102,1.521s-9.953-7.788-9.564-14.251
			c0.388-6.464,3.426-11.117,7.271-11.505c3.847-0.421,7.886,3.426,7.886,3.426s4.848-10.311,29.893-16.353
			c24.594-5.945,8.271-15.416,7.689-15.737c0.422,0.129,10.245,3.359,9.082,9.273c-1.229,6.075,2.844-5.234,11.117-2.618
			c8.272,2.618-9.502-2.229-4.461,7.466c0,0,4.04-5.235,12.119-1.422c0,0-5.656,0-7.271,3.329
			c-1.615,3.328,11.506-4.944,22.622,16.062l1.194,2.423c0,0,0.613-5.46,5.042-5.849c4.426-0.421,11.924,9.273,6.852,16.965
			c-5.042,7.66-7.691,2.812-2.618,11.505c5.042,8.693,15.739,21.813,7.658,41.396c0,0-3.037,2.004,4.233,11.925
			C725.112,333.294,727.115,339.531,727.115,339.531z"/>
		<path fill="#58595B" d="M591.548,334.587c21.523,0,101.441-0.421,114.755-12.217c-0.451-2.197,4.104-14.057,4.104-14.057
			c7.563-18.355-2.455-30.668-7.174-38.813s-0.422-3.62,4.329-10.793c4.72-7.206-1.68-17.483-5.85-17.127
			c-4.168,0.387-7.174,6.722-7.174,6.722l-1.131-2.262c-10.406-19.682-22.719-11.925-21.2-15.027
			c1.521-3.135,7.466-5.559,7.466-5.559c-7.562-3.587-11.667,1.615-11.667,1.615c-4.719-9.081,12.216-5.01,4.461-7.466
			c-7.757-2.456-12.248,8.307-11.117,2.619c1.1-5.559-7.853-8.854-8.24-8.985c0.55,0.323,15.674,11.926-7.367,17.483
			c-23.462,5.688-30.217,16.385-30.217,16.385s-3.749-3.878-7.368-3.49c-3.586,0.388-6.914,3.716-7.303,9.792
			c-0.323,5.364,7.885,10.471,9.145,11.505c-0.128,0.193-0.291,0.42-0.452,0.646c-9.08,13.055-11.344,21.942-9.468,32.186
			c0.969,5.269,0.904,8.727-0.518,11.57C599.046,329.706,568.895,334.587,591.548,334.587z"/>
		<path opacity="0.32" fill="#939598" enable-background="new    " d="M614.525,244.942l0.388,0.323
			c1.065-1.81,8.532-10.212,30.928-15.609c22.104-5.363,11.148-13.541,8.272-15.383c3.489,3.265,6.431,9.179-10.858,13.379
			c-25.046,6.075-28.665,17.225-28.665,17.225"/>
		<path fill="#BCBEC0" d="M605.381,240.191"/>
		<path fill="#EAA98B" d="M669.075,322.888c0,0-4.331,5.104-9.921,5.104c-5.592,0-14.897-5.492-14.897-5.492
			s-38.94,1.582-38.554-23.754c0.388-25.303,27.469-20.197,27.469-20.197s8.629-3.522,7.854-9.016c0,0,13.348,12.538,26.692,0
			c0,0,3.136,8.629,9.017,9.016c5.882,0.388,23.525-3.91,28.244,16.094C709.696,314.648,682.229,322.501,669.075,322.888z"/>
		<ellipse cx="657.377" cy="265.398" rx="15.706" ry="9.63"/>
		<ellipse fill="#414042" cx="655.082" cy="265.398" rx="15.706" ry="9.63"/>
		<g>
			<path fill="#414042" d="M627.775,268.598c2.066,0.484,3.941,1.066,5.17,2.067c-0.904-0.063-1.647-0.063-2.326,0
				c-1.1-0.548-2.424-1.099-3.911-1.486c-3.587-0.937-5.073-0.969-5.461-0.969C621.893,268.177,625.189,268.016,627.775,268.598z"/>
			<path fill="#414042" d="M628.131,269.567c2.133,0.098,4.071,0.356,5.428,1.163c-0.903,0.065-1.646,0.229-2.262,0.421
				c-1.163-0.355-2.553-0.646-4.104-0.774c-3.718-0.291-5.172-0.098-5.56,0C622.282,270.149,625.48,269.406,628.131,269.567z"/>
			<path fill="#414042" d="M681.484,269.05c-2.069,0.484-3.942,1.066-5.172,2.068c0.905-0.065,1.648-0.065,2.327,0
				c1.099-0.551,2.426-1.1,3.91-1.486c3.588-0.938,5.073-0.971,5.462-0.971C687.333,268.661,684.07,268.468,681.484,269.05z"/>
			<path fill="#414042" d="M681.129,270.019c-2.133,0.098-4.071,0.356-5.428,1.164c0.904,0.064,1.646,0.228,2.261,0.42
				c1.163-0.355,2.553-0.646,4.104-0.774c3.716-0.29,5.17-0.099,5.558,0C686.979,270.633,683.746,269.89,681.129,270.019z"/>
		</g>
		<ellipse cx="664.002" cy="265.883" rx="5.299" ry="2.036"/>
		<ellipse cx="646.615" cy="265.398" rx="5.3" ry="2.036"/>
		<path fill="#753919" d="M655.373,307.474c0,0,2.004-3.167,5.236-2.844c3.263,0.354,3.393,3.23,3.393,3.23s5.719-7.498,4.491-6.205
			c-0.84,0.905-23.332,3.522-28.858-0.259c0,0,3.977,4.363,4.04,5.624c0.099,1.259,0.614-1.067,6.271-2.619
			c0,0,3.264-0.419,5.171,3.104"/>
		<path fill="#C9795B" d="M662.773,310.253c0.129-0.291,0.259-0.582,0.389-0.904l0.84-1.52c-0.26-2.005-2.263-3.394-4.138-3.265
			c-1.874,0.128-3.521,1.455-4.653,3.07c-0.354-2.198-2.682-3.522-4.717-3.361c-2.069,0.13-5.01,1.811-6.756,2.974
			c0,0,1.197,1.52,1.906,2.973h17.129V310.253L662.773,310.253z"/>
		<path fill="#F3CCBC" d="M664.002,308.928c-0.26-2.003-2.263-3.394-4.138-3.265c-1.874,0.13-3.521,1.454-4.653,3.07
			c-0.354-2.197-2.682-3.521-4.717-3.361c-2.069,0.162-4.492,1.715-6.237,2.909c0,0,1.583,3.716,2.392,5.042
			c0.808,1.324,2.035,3.07,2.974,4.491c0.937,1.39,8.401,5.364,13.573-7.336"/>
		<path fill="none" stroke="#000000" stroke-width="0.3232" stroke-miterlimit="10" d="M599.046,296.842
			c0,0,13.088-16.708,26.952-10.891"/>
		<path fill="none" stroke="#000000" stroke-width="0.3232" stroke-miterlimit="10" d="M597.396,315.714
			c0,0,8.531-25.854,27.761-24.916"/>
		<path fill="none" stroke="#000000" stroke-width="0.3232" stroke-miterlimit="10" d="M703.266,295.355
			c0,0-13.088-16.708-26.95-10.891"/>
		<path fill="none" stroke="#000000" stroke-width="0.3232" stroke-miterlimit="10" d="M704.913,314.261
			c0,0-8.53-25.853-27.759-24.916"/>
		<ellipse fill="#EAA98B" cx="611.294" cy="253.408" rx="5.105" ry="7.045"/>
		<ellipse fill="#EAA98B" cx="701.165" cy="253.085" rx="5.104" ry="7.045"/>
		<path class="Oberlippe_5_" fill="#C9795B" d="M655.276,302.82c-12.929,0.227-23.56-4.201-24.173-9.985
			c0,0.129-0.031,0.291-0.031,0.421c0.096,6.011,10.954,10.665,24.204,10.438c13.249-0.227,23.914-5.3,23.815-11.312
			c0-0.128-0.032-0.29-0.032-0.419C678.674,297.779,668.203,302.594,655.276,302.82z"/>
		<g class="Mund_5_">
			<path fill="none" stroke="#C9795B" stroke-width="0.3232" stroke-miterlimit="10" d="M636.952,299.944
				c0,0,5.269,2.166,8.854,12.021c3.619,9.856,10.472,7.207,10.472,7.207"/>
			<path fill="none" stroke="#C9795B" stroke-width="0.3232" stroke-miterlimit="10" d="M671.434,299.944
				c0,0-5.267,2.166-8.854,12.021c-3.62,9.856-10.471,7.207-10.471,7.207"/>
			<path fill="none" stroke="#C9795B" stroke-width="0.3232" stroke-miterlimit="10" d="M645.807,311.965
				c3.619,9.856,10.472,7.207,10.472,7.207"/>
		</g>
		<g class="Augenbraue-rechts_5_">
			<path class="Augenbraue_x5F_rechs_5_" d="M680.611,259.613c-2.133,0.324-4.039,0.906-5.331,2.554
				c0.905,0.097,1.647,0.354,2.294,0.679c1.132-0.776,2.488-1.422,4.04-1.777c3.684-0.808,5.138-0.453,5.524-0.322
				C686.493,260.519,683.229,259.226,680.611,259.613z"/>
		</g>
		<g class="Augenbraue-links_5_">
			<path class="Augenbraue_x5F_links_5_" d="M629.876,259.613c2.133,0.324,4.039,0.906,5.332,2.554
				c-0.906,0.097-1.649,0.354-2.295,0.679c-1.132-0.776-2.488-1.422-4.039-1.777c-3.685-0.808-5.14-0.453-5.526-0.322
				C623.994,260.519,627.258,259.226,629.876,259.613z"/>
		</g>
	</g>
	<path fill="#276D0A" d="M723.61,311.495c0.01,0.15,0.036,0.3,0.036,0.45c0,12.172-31.902,22.039-71.259,22.039
		c-39.355,0-71.26-9.867-71.26-22.039c0-1.511,0.494-2.985,1.431-4.411c-0.561-0.146-1.143-0.23-1.751-0.23
		c-25.213,0-46.986-12.605-69.907-25.212c-38.965-21.774-83.659-13.752-128.354-18.336c-1.146,0-4.584-2.292-6.876-2.292
		c-10.776-2.155-22.564-0.262-32.508-5.744c0,0.024,0.006,0.048,0.006,0.072c0,12.172-31.904,22.039-71.259,22.039
		s-71.26-9.867-71.26-22.039c0-0.017,0.004-0.031,0.004-0.046c-18.463,0.093-36.927,0.646-55.39-1.919l-30.547,141.701
		c4.434,3.607,8.833,7.358,13.413,11.48c2.292,1.146,6.876,0,9.168,1.146c29.796,18.337,65.323,19.482,97.412,17.19
		c18.336-2.292,22.92-26.358,40.111-33.234c4.318-1.92,8.637-3.842,12.956-6.015c0.593-12.014,32.247-21.696,71.231-21.696
		c39.355,0,71.258,9.867,71.258,22.039c0,0.378-0.031,0.756-0.092,1.13c81.983,1.952,168.404-18.115,248.047,18.294
		c7.981,3.547,18.704,2.979,28.987,2.538c-0.002-0.063-0.016-0.125-0.016-0.188c0-12.173,31.903-22.039,71.26-22.039
		c39.355,0,71.258,9.866,71.258,22.039c0,0.73-0.121,1.452-0.347,2.166c14.972-0.302,29.94-1.658,44.911-3.351l-27.556-105.326
		c-7.85,0.444-15.661,1.449-23.472,3.31C802.622,314.038,763.107,303.079,723.61,311.495z"/>
	<g class="mole mole_3_">
		<path fill="#414042" d="M432.072,410.471H282.674c0,0,1.001-13.928,9.501-19.391c8.466-5.462,10.696-9.08,8.693-20.004
			c-2.004-10.923,0.388-20.391,10.082-34.319c9.695-13.929,3.103,1.52,3.103,1.52s-9.953-7.789-9.565-14.251
			c0.387-6.464,3.426-11.117,7.271-11.505c3.846-0.421,7.885,3.426,7.885,3.426s4.848-10.31,29.892-16.353
			c24.594-5.946,8.273-15.415,7.691-15.737c0.421,0.128,10.245,3.359,9.082,9.274c-1.229,6.074,2.843-5.235,11.117-2.618
			c8.273,2.618-9.501-2.23-4.461,7.465c0,0,4.04-5.236,12.12-1.421c0,0-5.656,0-7.271,3.328
			c-1.616,3.329,11.505-4.944,22.622,16.062l1.195,2.423c0,0,0.613-5.46,5.042-5.849c4.426-0.421,11.923,9.274,6.85,16.965
			c-5.042,7.659-7.69,2.812-2.617,11.505c5.042,8.692,15.738,21.813,7.658,41.396c0,0-3.038,2.005,4.234,11.926
			C430.068,404.233,432.072,410.471,432.072,410.471z"/>
		<path fill="#58595B" d="M296.505,405.526c21.522,0,101.441-0.42,114.755-12.216c-0.452-2.198,4.104-14.057,4.104-14.057
			c7.563-18.356-2.456-30.668-7.174-38.813c-4.717-8.145-0.42-3.62,4.33-10.793c4.718-7.207-1.68-17.483-5.85-17.127
			c-4.168,0.387-7.174,6.722-7.174,6.722l-1.13-2.262c-10.406-19.68-22.719-11.924-21.201-15.027
			c1.52-3.135,7.466-5.559,7.466-5.559c-7.563-3.587-11.667,1.616-11.667,1.616c-4.718-9.081,12.216-5.009,4.461-7.466
			c-7.757-2.456-12.248,8.305-11.117,2.619c1.098-5.56-7.853-8.854-8.241-8.984c0.549,0.323,15.674,11.925-7.368,17.482
			c-23.462,5.688-30.216,16.386-30.216,16.386s-3.749-3.878-7.368-3.491c-3.587,0.388-6.915,3.715-7.303,9.792
			c-0.324,5.365,7.884,10.471,9.145,11.505c-0.129,0.194-0.291,0.42-0.453,0.647c-9.081,13.055-11.343,21.941-9.469,32.186
			c0.97,5.268,0.905,8.726-0.517,11.57C304.003,400.646,273.852,405.526,296.505,405.526z"/>
		<path opacity="0.32" fill="#939598" enable-background="new    " d="M319.482,315.881l0.388,0.322
			c1.066-1.81,8.531-10.212,30.927-15.608c22.104-5.364,11.149-13.541,8.273-15.383c3.491,3.263,6.431,9.178-10.858,13.379
			c-25.046,6.075-28.665,17.224-28.665,17.224"/>
		<path fill="#BCBEC0" d="M310.336,311.13"/>
		<path fill="#EAA98B" d="M374.032,393.826c0,0-4.331,5.106-9.921,5.106c-5.59,0-14.897-5.493-14.897-5.493
			s-38.941,1.582-38.554-23.753c0.388-25.303,27.469-20.197,27.469-20.197s8.628-3.521,7.853-9.016c0,0,13.347,12.539,26.693,0
			c0,0,3.135,8.629,9.016,9.016c5.881,0.389,23.526-3.911,28.244,16.093C414.653,385.587,387.185,393.44,374.032,393.826z"/>
		<ellipse cx="362.333" cy="336.337" rx="15.707" ry="9.63"/>
		<ellipse fill="#414042" cx="360.039" cy="336.337" rx="15.705" ry="9.63"/>
		<g>
			<path fill="#414042" d="M332.731,339.536c2.068,0.484,3.943,1.066,5.171,2.067c-0.905-0.064-1.648-0.064-2.327,0
				c-1.098-0.548-2.423-1.098-3.91-1.486c-3.587-0.937-5.074-0.969-5.461-0.969C326.85,339.115,330.147,338.954,332.731,339.536z"/>
			<path fill="#414042" d="M333.087,340.506c2.133,0.098,4.072,0.355,5.429,1.163c-0.905,0.064-1.648,0.227-2.263,0.421
				c-1.163-0.356-2.553-0.646-4.104-0.776c-3.716-0.291-5.171-0.096-5.558,0C327.238,341.088,330.438,340.345,333.087,340.506z"/>
			<path fill="#414042" d="M386.441,339.989c-2.069,0.484-3.943,1.066-5.172,2.068c0.906-0.065,1.648-0.065,2.328,0
				c1.098-0.549,2.424-1.1,3.91-1.486c3.587-0.938,5.073-0.97,5.461-0.97C392.29,339.601,389.026,339.406,386.441,339.989z"/>
			<path fill="#414042" d="M386.085,340.957c-2.133,0.099-4.071,0.356-5.428,1.164c0.904,0.064,1.647,0.227,2.26,0.421
				c1.164-0.356,2.553-0.646,4.105-0.776c3.715-0.29,5.169-0.097,5.558,0C391.936,341.573,388.703,340.829,386.085,340.957z"/>
		</g>
		<ellipse cx="368.959" cy="336.822" rx="5.298" ry="2.036"/>
		<ellipse cx="351.572" cy="336.337" rx="5.3" ry="2.036"/>
		<path fill="#753919" d="M360.33,378.412c0,0,2.003-3.167,5.235-2.844c3.264,0.356,3.394,3.231,3.394,3.231
			s5.719-7.497,4.491-6.205c-0.841,0.906-23.333,3.521-28.859-0.258c0,0,3.975,4.361,4.04,5.624c0.097,1.259,0.614-1.066,6.27-2.619
			c0,0,3.263-0.42,5.17,3.104"/>
		<path fill="#C9795B" d="M367.73,381.192c0.129-0.291,0.259-0.582,0.388-0.904l0.841-1.519c-0.26-2.004-2.263-3.394-4.138-3.265
			s-3.522,1.454-4.653,3.069c-0.355-2.198-2.682-3.521-4.717-3.36c-2.069,0.13-5.009,1.81-6.755,2.974c0,0,1.196,1.519,1.907,2.973
			h17.127V381.192L367.73,381.192z"/>
		<path fill="#F3CCBC" d="M368.959,379.866c-0.26-2.003-2.263-3.394-4.138-3.264c-1.875,0.129-3.522,1.454-4.653,3.07
			c-0.356-2.197-2.682-3.522-4.717-3.361c-2.069,0.161-4.492,1.713-6.237,2.909c0,0,1.583,3.716,2.391,5.042
			c0.808,1.324,2.036,3.069,2.974,4.491c0.937,1.391,8.402,5.363,13.573-7.336"/>
		<path fill="none" stroke="#000000" stroke-width="0.3232" stroke-miterlimit="10" d="M304.003,367.781
			c0,0,13.088-16.708,26.951-10.891"/>
		<path fill="none" stroke="#000000" stroke-width="0.3232" stroke-miterlimit="10" d="M302.354,386.653
			c0,0,8.532-25.853,27.76-24.916"/>
		<path fill="none" stroke="#000000" stroke-width="0.3232" stroke-miterlimit="10" d="M408.223,366.295
			c0,0-13.089-16.708-26.952-10.892"/>
		<path fill="none" stroke="#000000" stroke-width="0.3232" stroke-miterlimit="10" d="M409.87,385.199
			c0,0-8.53-25.853-27.759-24.916"/>
		<ellipse fill="#EAA98B" cx="316.25" cy="324.347" rx="5.106" ry="7.045"/>
		<ellipse fill="#EAA98B" cx="406.122" cy="324.024" rx="5.105" ry="7.045"/>
		<path class="Oberlippe_1_" fill="#C9795B" d="M360.233,373.76c-12.927,0.226-23.559-4.201-24.172-9.986
			c0,0.129-0.032,0.291-0.032,0.421c0.097,6.011,10.955,10.665,24.205,10.438c13.25-0.229,23.914-5.301,23.817-11.313
			c0-0.129-0.033-0.29-0.033-0.419C383.63,368.718,373.16,373.533,360.233,373.76z"/>
		<g class="Mund_1_">
			<path fill="none" stroke="#C9795B" stroke-width="0.3232" stroke-miterlimit="10" d="M341.909,370.883
				c0,0,5.268,2.166,8.854,12.021c3.619,9.857,10.471,7.208,10.471,7.208"/>
			<path fill="none" stroke="#C9795B" stroke-width="0.3232" stroke-miterlimit="10" d="M376.39,370.883
				c0,0-5.267,2.166-8.854,12.021c-3.62,9.857-10.471,7.208-10.471,7.208"/>
			<path fill="none" stroke="#C9795B" stroke-width="0.3232" stroke-miterlimit="10" d="M350.764,382.904
				c3.619,9.857,10.471,7.208,10.471,7.208"/>
		</g>
		<g class="Augenbraue-rechts_1_">
			<path class="Augenbraue_x5F_rechs_1_" d="M385.568,330.552c-2.132,0.323-4.039,0.904-5.332,2.553
				c0.905,0.098,1.648,0.356,2.294,0.679c1.131-0.774,2.488-1.422,4.04-1.776c3.683-0.809,5.137-0.454,5.525-0.324
				C391.45,331.457,388.186,330.164,385.568,330.552z"/>
		</g>
		<g class="Augenbraue-links_1_">
			<path class="Augenbraue_x5F_links_1_" d="M334.832,330.552c2.133,0.323,4.04,0.904,5.333,2.553
				c-0.905,0.098-1.648,0.356-2.295,0.679c-1.131-0.774-2.488-1.422-4.04-1.776c-3.684-0.809-5.138-0.454-5.526-0.324
				C328.951,331.457,332.214,330.164,334.832,330.552z"/>
		</g>
	</g>
	<g class="mole">
		<path fill="#414042" d="M851.288,434.662H701.891c0,0,1.001-13.928,9.5-19.39c8.469-5.462,10.697-9.081,8.693-20.004
			c-2.003-10.923,0.388-20.391,10.083-34.32c9.695-13.928,3.103,1.521,3.103,1.521s-9.952-7.788-9.564-14.251
			c0.387-6.464,3.426-11.117,7.271-11.505c3.847-0.42,7.886,3.426,7.886,3.426s4.849-10.311,29.893-16.353
			c24.594-5.945,8.273-15.415,7.691-15.736c0.421,0.128,10.245,3.358,9.082,9.273c-1.229,6.075,2.843-5.234,11.115-2.618
			c8.273,2.617-9.501-2.23-4.461,7.465c0,0,4.04-5.235,12.12-1.422c0,0-5.655,0-7.271,3.328
			c-1.616,3.329,11.505-4.943,22.621,16.062l1.194,2.423c0,0,0.613-5.46,5.042-5.849c4.428-0.421,11.924,9.274,6.852,16.965
			c-5.042,7.66-7.69,2.812-2.617,11.505c5.041,8.691,15.738,21.813,7.658,41.396c0,0-3.038,2.004,4.232,11.925
			C849.285,428.426,851.288,434.662,851.288,434.662z"/>
		<path fill="#58595B" d="M715.722,429.719c21.521,0,101.441-0.42,114.755-12.216c-0.451-2.198,4.104-14.058,4.104-14.058
			c7.563-18.355-2.455-30.668-7.174-38.813c-4.717-8.145-0.421-3.619,4.33-10.793c4.719-7.207-1.681-17.484-5.851-17.128
			c-4.168,0.387-7.174,6.722-7.174,6.722l-1.13-2.262c-10.406-19.681-22.72-11.926-21.201-15.027
			c1.521-3.135,7.467-5.559,7.467-5.559c-7.563-3.588-11.668,1.615-11.668,1.615c-4.718-9.081,12.216-5.009,4.461-7.466
			c-7.757-2.456-12.248,8.306-11.115,2.619c1.098-5.559-7.854-8.854-8.241-8.984c0.549,0.323,15.674,11.925-7.368,17.483
			c-23.462,5.688-30.216,16.385-30.216,16.385s-3.748-3.878-7.367-3.491c-3.589,0.389-6.917,3.716-7.304,9.792
			c-0.324,5.365,7.884,10.472,9.146,11.506c-0.13,0.192-0.291,0.419-0.453,0.646c-9.081,13.055-11.343,21.942-9.47,32.187
			c0.971,5.268,0.905,8.726-0.517,11.568C723.219,424.839,693.068,429.719,715.722,429.719z"/>
		<path opacity="0.32" fill="#939598" enable-background="new    " d="M738.698,340.073l0.389,0.324
			c1.066-1.81,8.531-10.212,30.927-15.609c22.104-5.363,11.149-13.541,8.272-15.383c3.491,3.265,6.431,9.178-10.857,13.38
			c-25.046,6.075-28.665,17.225-28.665,17.225"/>
		<path fill="#BCBEC0" d="M729.553,335.323"/>
		<path fill="#EAA98B" d="M793.249,418.02c0,0-4.331,5.105-9.922,5.105c-5.59,0-14.897-5.492-14.897-5.492
			s-38.94,1.582-38.554-23.753c0.389-25.305,27.469-20.198,27.469-20.198s8.629-3.522,7.854-9.016c0,0,13.347,12.538,26.691,0
			c0,0,3.136,8.629,9.018,9.016c5.881,0.388,23.525-3.911,28.244,16.093S806.401,417.633,793.249,418.02z"/>
		<ellipse cx="781.55" cy="360.529" rx="15.706" ry="9.63"/>
		<ellipse fill="#414042" cx="779.256" cy="360.529" rx="15.705" ry="9.63"/>
		<g>
			<path fill="#414042" d="M751.948,363.729c2.067,0.485,3.941,1.067,5.171,2.067c-0.906-0.064-1.649-0.064-2.327,0
				c-1.099-0.549-2.424-1.099-3.91-1.486c-3.587-0.938-5.074-0.969-5.462-0.969C746.067,363.309,749.364,363.147,751.948,363.729z"
				/>
			<path fill="#414042" d="M752.303,364.698c2.133,0.099,4.073,0.356,5.432,1.163c-0.905,0.065-1.65,0.228-2.265,0.421
				c-1.163-0.355-2.553-0.646-4.104-0.775c-3.717-0.291-5.172-0.097-5.56,0C746.454,365.28,749.654,364.536,752.303,364.698z"/>
			<path fill="#414042" d="M805.658,364.181c-2.069,0.484-3.943,1.066-5.172,2.067c0.904-0.064,1.647-0.064,2.328,0
				c1.098-0.549,2.424-1.099,3.909-1.485c3.587-0.938,5.073-0.97,5.461-0.97C811.507,363.793,808.243,363.6,805.658,364.181z"/>
			<path fill="#414042" d="M805.302,365.15c-2.133,0.098-4.07,0.356-5.428,1.164c0.904,0.064,1.647,0.226,2.261,0.42
				c1.164-0.355,2.553-0.646,4.105-0.776c3.715-0.289,5.169-0.097,5.558,0C811.152,365.765,807.92,365.022,805.302,365.15z"/>
		</g>
		<ellipse cx="788.176" cy="361.014" rx="5.298" ry="2.036"/>
		<ellipse cx="770.788" cy="360.53" rx="5.301" ry="2.036"/>
		<path fill="#753919" d="M779.547,402.605c0,0,2.003-3.167,5.235-2.844c3.264,0.354,3.394,3.23,3.394,3.23s5.719-7.498,4.491-6.205
			c-0.841,0.905-23.333,3.522-28.859-0.259c0,0,3.977,4.363,4.04,5.624c0.098,1.259,0.613-1.065,6.271-2.619
			c0,0,3.264-0.419,5.171,3.104"/>
		<path fill="#C9795B" d="M786.946,405.385c0.129-0.291,0.259-0.582,0.389-0.904l0.841-1.519c-0.26-2.006-2.264-3.395-4.138-3.266
			c-1.875,0.128-3.522,1.454-4.653,3.069c-0.354-2.198-2.682-3.521-4.718-3.36c-2.069,0.13-5.009,1.811-6.754,2.975
			c0,0,1.194,1.519,1.906,2.972h17.127V405.385L786.946,405.385z"/>
		<path fill="#F3CCBC" d="M788.176,404.06c-0.26-2.004-2.264-3.395-4.138-3.264c-1.875,0.129-3.522,1.454-4.653,3.068
			c-0.355-2.195-2.682-3.521-4.718-3.359c-2.069,0.161-4.492,1.714-6.237,2.908c0,0,1.583,3.717,2.392,5.041s2.036,3.07,2.974,4.491
			c0.938,1.392,8.401,5.364,13.573-7.336"/>
		<path fill="none" stroke="#000000" stroke-width="0.3232" stroke-miterlimit="10" d="M723.219,391.974
			c0,0,13.089-16.708,26.951-10.892"/>
		<path fill="none" stroke="#000000" stroke-width="0.3232" stroke-miterlimit="10" d="M721.57,410.846
			c0,0,8.53-25.854,27.76-24.916"/>
		<path fill="none" stroke="#000000" stroke-width="0.3232" stroke-miterlimit="10" d="M827.439,390.487
			c0,0-13.09-16.708-26.952-10.891"/>
		<path fill="none" stroke="#000000" stroke-width="0.3232" stroke-miterlimit="10" d="M829.087,409.393
			c0,0-8.53-25.854-27.759-24.916"/>
		<ellipse fill="#EAA98B" cx="735.466" cy="348.54" rx="5.107" ry="7.045"/>
		<ellipse fill="#EAA98B" cx="825.338" cy="348.217" rx="5.106" ry="7.045"/>
		<path class="Oberlippe_3_" fill="#C9795B" d="M779.449,397.951c-12.926,0.227-23.56-4.2-24.172-9.985
			c0,0.129-0.033,0.291-0.033,0.421c0.098,6.011,10.955,10.664,24.205,10.438c13.25-0.228,23.914-5.301,23.816-11.312
			c0-0.129-0.032-0.29-0.032-0.42C802.847,392.909,792.377,397.726,779.449,397.951z"/>
		<g class="Mund_3_">
			<path fill="none" stroke="#C9795B" stroke-width="0.3232" stroke-miterlimit="10" d="M761.126,395.075
				c0,0,5.268,2.165,8.854,12.021c3.618,9.856,10.471,7.207,10.471,7.207"/>
			<path fill="none" stroke="#C9795B" stroke-width="0.3232" stroke-miterlimit="10" d="M795.606,395.075
				c0,0-5.268,2.165-8.854,12.021c-3.619,9.856-10.471,7.207-10.471,7.207"/>
			<path fill="none" stroke="#C9795B" stroke-width="0.3232" stroke-miterlimit="10" d="M769.98,407.097
				c3.618,9.856,10.471,7.207,10.471,7.207"/>
		</g>
		<g class="Augenbraue-rechts_3_">
			<path class="Augenbraue_x5F_rechs_3_" d="M804.785,354.744c-2.132,0.323-4.039,0.905-5.332,2.554
				c0.905,0.097,1.647,0.355,2.295,0.679c1.131-0.775,2.487-1.422,4.04-1.777c3.683-0.808,5.137-0.453,5.524-0.322
				C810.666,355.65,807.402,354.357,804.785,354.744z"/>
		</g>
		<g class="Augenbraue-links_3_">
			<path class="Augenbraue_x5F_links_3_" d="M754.049,354.744c2.133,0.323,4.04,0.905,5.332,2.554
				c-0.904,0.097-1.646,0.355-2.295,0.679c-1.13-0.775-2.488-1.422-4.04-1.777c-3.683-0.808-5.137-0.453-5.526-0.322
				C748.166,355.65,751.431,354.357,754.049,354.744z"/>
		</g>
	</g>
	<path fill="#276D0A" d="M894.273,407.028c-14.971,1.691-29.939,3.049-44.911,3.351c-3.521,11.154-33.921,19.872-70.911,19.872
		c-39.151,0-70.916-9.767-71.244-21.852c-10.283,0.44-21.006,1.009-28.987-2.538c-79.643-36.409-166.063-16.342-248.047-18.294
		c-1.901,11.646-33.036,20.908-71.166,20.908c-39.355,0-71.259-9.866-71.259-22.038c0-0.114,0.022-0.229,0.028-0.343
		c-4.318,2.173-8.637,4.095-12.956,6.015c-17.19,6.876-21.774,30.942-40.111,33.234c-32.088,2.292-67.615,1.146-97.412-17.19
		c-2.292-1.146-6.876,0-9.168-1.146c-4.58-4.122-8.979-7.873-13.413-11.48L77.198,569.568c21.614-0.805,43.821-6.458,63.537-12.432
		c9.471-2.105,16.045,2.556,23.267,7.77c0.541-12.027,32.216-21.729,71.234-21.729c37.097,0,67.56,8.768,70.936,19.969
		c23.339,3.839,45.963,6.473,69.498,5.45c5.73,0,10.314-4.584,16.044-5.73c14.898-2.292,30.942-1.146,42.403-8.021
		c11.46-5.73,22.92-10.314,34.381-14.898c13.387-4.462,27.471-4.753,41.708-4.664c2.15-11.573,33.168-20.755,71.129-20.755
		c39.355,0,71.259,9.867,71.259,22.039c0,0.153-0.026,0.305-0.037,0.458c5.587-1.071,11.229-1.175,16.495-0.517
		c40.111,6.876,77.931,6.876,119.188,14.897c4.584,1.146,11.46,4.584,17.189,4.584c43.074,1.795,86.147,7.102,128.671,3.269
		L894.273,407.028z"/>
	<g class="mole">
		<path fill="#414042" d="M655.389,562.617H505.99c0,0,1.002-13.927,9.501-19.388c8.467-5.462,10.696-9.081,8.693-20.004
			c-2.005-10.924,0.388-20.393,10.081-34.32c9.695-13.93,3.104,1.521,3.104,1.521s-9.953-7.789-9.564-14.251
			c0.388-6.466,3.425-11.118,7.271-11.507c3.846-0.42,7.886,3.426,7.886,3.426s4.849-10.311,29.894-16.352
			c24.593-5.947,8.272-15.415,7.69-15.736c0.421,0.127,10.245,3.358,9.081,9.271c-1.229,6.075,2.843-5.235,11.117-2.616
			c8.272,2.616-9.501-2.23-4.461,7.465c0,0,4.041-5.234,12.119-1.421c0,0-5.656,0-7.271,3.328
			c-1.616,3.328,11.505-4.943,22.62,16.061l1.195,2.425c0,0,0.612-5.462,5.043-5.851c4.426-0.42,11.924,9.273,6.85,16.966
			c-5.041,7.658-7.689,2.812-2.616,11.505c5.04,8.692,15.737,21.813,7.657,41.396c0,0-3.038,2.004,4.234,11.924
			C653.386,556.383,655.389,562.617,655.389,562.617z"/>
		<path fill="#58595B" d="M519.821,557.674c21.521,0,101.441-0.418,114.756-12.214c-0.452-2.198,4.103-14.059,4.103-14.059
			c7.563-18.354-2.455-30.669-7.174-38.813c-4.716-8.146-0.421-3.619,4.331-10.793c4.719-7.207-1.681-17.483-5.851-17.128
			c-4.168,0.388-7.175,6.722-7.175,6.722l-1.13-2.263c-10.405-19.68-22.72-11.924-21.198-15.025c1.52-3.136,7.465-5.561,7.465-5.561
			c-7.563-3.586-11.667,1.615-11.667,1.615c-4.719-9.081,12.215-5.009,4.461-7.465c-7.758-2.455-12.248,8.305-11.117,2.619
			c1.099-5.561-7.854-8.855-8.241-8.984c0.55,0.322,15.675,11.924-7.367,17.483c-23.462,5.688-30.217,16.385-30.217,16.385
			s-3.748-3.88-7.367-3.492c-3.587,0.391-6.916,3.717-7.303,9.793c-0.325,5.365,7.883,10.472,9.146,11.506
			c-0.129,0.191-0.291,0.418-0.453,0.646c-9.081,13.054-11.344,21.942-9.469,32.187c0.97,5.269,0.903,8.727-0.518,11.568
			C527.318,552.795,497.169,557.674,519.821,557.674z"/>
		<path opacity="0.32" fill="#939598" enable-background="new    " d="M542.799,468.029l0.389,0.324
			c1.065-1.812,8.531-10.213,30.927-15.61c22.104-5.361,11.148-13.539,8.271-15.382c3.492,3.265,6.432,9.178-10.856,13.379
			c-25.045,6.075-28.664,17.225-28.664,17.225"/>
		<path fill="#BCBEC0" d="M533.653,463.279"/>
		<path fill="#EAA98B" d="M597.35,545.977c0,0-4.331,5.104-9.923,5.104c-5.589,0-14.896-5.491-14.896-5.491
			s-38.943,1.582-38.557-23.754c0.391-25.305,27.47-20.198,27.47-20.198s8.629-3.521,7.854-9.017c0,0,13.347,12.539,26.691,0
			c0,0,3.137,8.628,9.017,9.017c5.882,0.39,23.526-3.91,28.245,16.094S610.502,545.59,597.35,545.977z"/>
		<ellipse cx="585.649" cy="488.486" rx="15.706" ry="9.631"/>
		<ellipse fill="#414042" cx="583.355" cy="488.486" rx="15.705" ry="9.631"/>
		<g>
			<path fill="#414042" d="M556.048,491.686c2.068,0.484,3.944,1.065,5.171,2.066c-0.903-0.063-1.646-0.063-2.326,0
				c-1.099-0.55-2.424-1.098-3.909-1.486c-3.589-0.937-5.074-0.969-5.462-0.969C550.167,491.266,553.464,491.104,556.048,491.686z"
				/>
			<path fill="#414042" d="M556.403,492.655c2.134,0.097,4.071,0.355,5.43,1.161c-0.905,0.065-1.648,0.229-2.262,0.421
				c-1.164-0.354-2.556-0.645-4.105-0.773c-3.716-0.291-5.171-0.097-5.558,0C550.555,493.237,553.754,492.493,556.403,492.655z"/>
			<path fill="#414042" d="M609.759,492.138c-2.069,0.483-3.943,1.064-5.173,2.067c0.906-0.063,1.649-0.063,2.328,0
				c1.099-0.551,2.424-1.099,3.91-1.485c3.588-0.938,5.074-0.972,5.461-0.972C615.607,491.748,612.344,491.557,609.759,492.138z"/>
			<path fill="#414042" d="M609.402,493.107c-2.134,0.096-4.071,0.355-5.429,1.164c0.904,0.063,1.647,0.226,2.262,0.418
				c1.164-0.354,2.552-0.645,4.104-0.774c3.716-0.291,5.168-0.099,5.559,0C615.252,493.721,612.02,492.978,609.402,493.107z"/>
		</g>
		<ellipse cx="592.275" cy="488.97" rx="5.298" ry="2.036"/>
		<ellipse cx="574.888" cy="488.486" rx="5.302" ry="2.036"/>
		<path fill="#753919" d="M583.646,530.562c0,0,2.003-3.167,5.234-2.843c3.264,0.354,3.395,3.229,3.395,3.229
			s5.719-7.496,4.491-6.204c-0.842,0.906-23.332,3.522-28.858-0.258c0,0,3.976,4.362,4.041,5.623c0.096,1.26,0.612-1.064,6.27-2.619
			c0,0,3.264-0.419,5.17,3.104"/>
		<path fill="#C9795B" d="M591.046,533.342c0.13-0.291,0.26-0.582,0.39-0.904l0.841-1.521c-0.261-2.003-2.265-3.394-4.138-3.264
			c-1.876,0.128-3.522,1.455-4.652,3.069c-0.356-2.198-2.683-3.521-4.72-3.36c-2.067,0.13-5.009,1.81-6.754,2.974
			c0,0,1.196,1.521,1.906,2.973h17.127V533.342L591.046,533.342z"/>
		<path fill="#F3CCBC" d="M592.275,532.016c-0.261-2.003-2.265-3.394-4.138-3.263c-1.876,0.127-3.522,1.451-4.652,3.067
			c-0.356-2.195-2.683-3.521-4.72-3.358c-2.067,0.16-4.491,1.712-6.234,2.906c0,0,1.582,3.719,2.39,5.043
			c0.81,1.323,2.035,3.068,2.974,4.49c0.938,1.39,8.402,5.365,13.572-7.335"/>
		<path fill="none" stroke="#000000" stroke-width="0.3232" stroke-miterlimit="10" d="M527.318,519.93
			c0,0,13.089-16.707,26.951-10.891"/>
		<path fill="none" stroke="#000000" stroke-width="0.3232" stroke-miterlimit="10" d="M525.672,538.803
			c0,0,8.529-25.854,27.76-24.917"/>
		<path fill="none" stroke="#000000" stroke-width="0.3232" stroke-miterlimit="10" d="M631.54,518.443
			c0,0-13.09-16.707-26.952-10.89"/>
		<path fill="none" stroke="#000000" stroke-width="0.3232" stroke-miterlimit="10" d="M633.188,537.348
			c0,0-8.529-25.854-27.76-24.915"/>
		<ellipse fill="#EAA98B" cx="539.567" cy="476.496" rx="5.104" ry="7.045"/>
		<path fill="#EAA98B" d="M629.438,469.128c2.82,0,5.106,3.153,5.106,7.044c0,3.893-2.286,7.047-5.106,7.047
			c-2.816,0-5.104-3.154-5.104-7.047C624.332,472.281,626.62,469.128,629.438,469.128z"/>
		<path class="Oberlippe_2_" fill="#C9795B" d="M583.55,525.907c-12.927,0.227-23.558-4.202-24.173-9.984
			c0,0.127-0.032,0.291-0.032,0.421c0.098,6.01,10.954,10.663,24.205,10.438c13.249-0.227,23.915-5.301,23.816-11.311
			c0-0.13-0.031-0.291-0.031-0.421C606.947,520.866,596.477,525.682,583.55,525.907z"/>
		<g class="Mund_2_">
			<path fill="none" stroke="#C9795B" stroke-width="0.3232" stroke-miterlimit="10" d="M565.226,523.031
				c0,0,5.27,2.167,8.854,12.022c3.619,9.856,10.471,7.207,10.471,7.207"/>
			<path fill="none" stroke="#C9795B" stroke-width="0.3232" stroke-miterlimit="10" d="M599.706,523.031
				c0,0-5.267,2.167-8.854,12.022c-3.618,9.856-10.471,7.207-10.471,7.207"/>
			<path fill="none" stroke="#C9795B" stroke-width="0.3232" stroke-miterlimit="10" d="M574.08,535.054
				c3.619,9.856,10.471,7.207,10.471,7.207"/>
		</g>
		<g class="Augenbraue-rechts_2_">
			<path class="Augenbraue_x5F_rechs_2_" d="M608.886,482.7c-2.133,0.322-4.04,0.904-5.332,2.553c0.904,0.099,1.647,0.355,2.295,0.681
				c1.13-0.776,2.486-1.424,4.04-1.777c3.683-0.808,5.138-0.454,5.524-0.324C614.766,483.605,611.502,482.314,608.886,482.7z"/>
		</g>
		<g class="Augenbraue-links_2_">
			<path class="Augenbraue_x5F_links_2_" d="M558.149,482.7c2.133,0.322,4.038,0.904,5.331,2.553c-0.904,0.099-1.647,0.355-2.295,0.681
				c-1.131-0.776-2.487-1.424-4.039-1.777c-3.685-0.808-5.139-0.454-5.526-0.324C552.268,483.605,555.53,482.314,558.149,482.7z"/>
		</g>
	</g>
	<g class="mole">
		<path fill="#414042" d="M308.624,590.577H159.226c0,0,1.001-13.928,9.501-19.39c8.466-5.462,10.696-9.081,8.693-20.004
			c-2.004-10.923,0.388-20.393,10.083-34.32c9.695-13.928,3.102,1.521,3.102,1.521s-9.953-7.788-9.565-14.251
			c0.387-6.465,3.426-11.117,7.271-11.505c3.846-0.422,7.885,3.426,7.885,3.426s4.848-10.311,29.893-16.354
			c24.593-5.945,8.272-15.415,7.69-15.736c0.421,0.129,10.245,3.358,9.082,9.273c-1.229,6.074,2.843-5.234,11.117-2.618
			c8.273,2.618-9.501-2.229-4.461,7.465c0,0,4.041-5.234,12.12-1.421c0,0-5.656,0-7.271,3.328
			c-1.616,3.328,11.505-4.943,22.622,16.063l1.195,2.423c0,0,0.614-5.461,5.042-5.849c4.426-0.422,11.923,9.273,6.851,16.965
			c-5.042,7.659-7.691,2.812-2.618,11.505c5.042,8.692,15.739,21.813,7.658,41.396c0,0-3.037,2.004,4.234,11.926
			C306.621,584.341,308.624,590.577,308.624,590.577z"/>
		<path fill="#58595B" d="M173.057,585.634c21.522,0,101.441-0.42,114.755-12.216c-0.452-2.198,4.104-14.058,4.104-14.058
			c7.563-18.355-2.455-30.669-7.174-38.813c-4.717-8.146-0.42-3.619,4.33-10.793c4.719-7.207-1.68-17.484-5.85-17.128
			c-4.168,0.387-7.174,6.722-7.174,6.722l-1.13-2.262c-10.406-19.682-22.719-11.926-21.2-15.027c1.52-3.135,7.466-5.559,7.466-5.559
			c-7.563-3.588-11.667,1.615-11.667,1.615c-4.718-9.081,12.216-5.01,4.461-7.467c-7.757-2.455-12.248,8.306-11.117,2.619
			c1.098-5.559-7.853-8.854-8.241-8.984c0.549,0.323,15.674,11.925-7.368,17.483c-23.462,5.688-30.216,16.385-30.216,16.385
			s-3.749-3.878-7.368-3.491c-3.587,0.39-6.916,3.717-7.303,9.792c-0.324,5.365,7.884,10.472,9.145,11.506
			c-0.129,0.192-0.291,0.42-0.453,0.646c-9.081,13.055-11.343,21.941-9.469,32.186c0.97,5.269,0.905,8.728-0.517,11.57
			C180.555,580.754,150.403,585.634,173.057,585.634z"/>
		<path opacity="0.32" fill="#939598" enable-background="new    " d="M196.034,495.988l0.388,0.323
			c1.066-1.81,8.531-10.212,30.927-15.608c22.104-5.363,11.149-13.541,8.273-15.383c3.49,3.265,6.431,9.178-10.858,13.379
			c-25.046,6.075-28.665,17.226-28.665,17.226"/>
		<path fill="#BCBEC0" d="M186.888,491.237"/>
		<path fill="#EAA98B" d="M250.584,573.935c0,0-4.331,5.106-9.921,5.106c-5.59,0-14.897-5.493-14.897-5.493
			s-38.941,1.582-38.554-23.753c0.388-25.305,27.469-20.198,27.469-20.198s8.628-3.521,7.853-9.017c0,0,13.347,12.539,26.693,0
			c0,0,3.135,8.63,9.016,9.017c5.881,0.389,23.526-3.91,28.245,16.094C291.205,565.694,263.736,573.548,250.584,573.935z"/>
		<ellipse cx="238.885" cy="516.445" rx="15.707" ry="9.63"/>
		<ellipse fill="#414042" cx="236.591" cy="516.445" rx="15.706" ry="9.63"/>
		<g>
			<path fill="#414042" d="M209.283,519.645c2.068,0.484,3.943,1.066,5.171,2.066c-0.905-0.063-1.648-0.063-2.327,0
				c-1.098-0.549-2.423-1.099-3.91-1.486c-3.587-0.938-5.074-0.969-5.461-0.969C203.402,519.224,206.699,519.063,209.283,519.645z"
				/>
			<path fill="#414042" d="M209.639,520.613c2.133,0.099,4.072,0.356,5.429,1.163c-0.905,0.064-1.648,0.229-2.262,0.421
				c-1.164-0.355-2.553-0.646-4.104-0.774c-3.717-0.291-5.171-0.098-5.559,0C203.79,521.195,206.989,520.451,209.639,520.613z"/>
			<path fill="#414042" d="M262.993,520.097c-2.069,0.483-3.943,1.065-5.172,2.067c0.906-0.064,1.649-0.064,2.328,0
				c1.098-0.55,2.424-1.1,3.91-1.485c3.587-0.938,5.073-0.972,5.462-0.972C268.842,519.707,265.579,519.515,262.993,520.097z"/>
			<path fill="#414042" d="M262.637,521.065c-2.133,0.098-4.071,0.356-5.428,1.164c0.904,0.063,1.647,0.226,2.261,0.42
				c1.164-0.355,2.553-0.646,4.105-0.775c3.716-0.289,5.169-0.098,5.558,0C268.487,521.68,265.255,520.937,262.637,521.065z"/>
		</g>
		<ellipse cx="245.511" cy="516.929" rx="5.298" ry="2.036"/>
		<ellipse cx="228.124" cy="516.445" rx="5.3" ry="2.036"/>
		<path fill="#753919" d="M236.882,558.521c0,0,2.003-3.167,5.235-2.844c3.264,0.355,3.394,3.23,3.394,3.23s5.719-7.498,4.491-6.205
			c-0.84,0.905-23.333,3.522-28.859-0.259c0,0,3.976,4.363,4.041,5.624c0.097,1.26,0.614-1.065,6.27-2.619
			c0,0,3.263-0.419,5.17,3.104"/>
		<path fill="#C9795B" d="M244.282,561.3c0.129-0.291,0.259-0.582,0.389-0.904l0.84-1.519c-0.26-2.006-2.263-3.395-4.138-3.266
			c-1.875,0.128-3.522,1.454-4.653,3.069c-0.355-2.198-2.682-3.521-4.717-3.36c-2.069,0.13-5.009,1.811-6.755,2.975
			c0,0,1.196,1.519,1.907,2.973h17.127V561.3L244.282,561.3z"/>
		<path fill="#F3CCBC" d="M245.511,559.975c-0.26-2.004-2.263-3.395-4.138-3.264c-1.875,0.129-3.522,1.453-4.653,3.069
			c-0.356-2.196-2.682-3.521-4.717-3.36c-2.069,0.16-4.492,1.714-6.237,2.908c0,0,1.583,3.717,2.391,5.041
			c0.808,1.324,2.036,3.07,2.974,4.491c0.937,1.392,8.402,5.364,13.573-7.336"/>
		<path fill="none" stroke="#000000" stroke-width="0.3232" stroke-miterlimit="10" d="M180.555,547.889
			c0,0,13.088-16.708,26.951-10.892"/>
		<path fill="none" stroke="#000000" stroke-width="0.3232" stroke-miterlimit="10" d="M178.906,566.761
			c0,0,8.532-25.854,27.76-24.916"/>
		<path fill="none" stroke="#000000" stroke-width="0.3232" stroke-miterlimit="10" d="M284.774,546.402
			c0,0-13.089-16.708-26.952-10.891"/>
		<path fill="none" stroke="#000000" stroke-width="0.3232" stroke-miterlimit="10" d="M286.422,565.308
			c0,0-8.53-25.854-27.759-24.916"/>
		<ellipse fill="#EAA98B" cx="192.802" cy="504.455" rx="5.106" ry="7.045"/>
		<ellipse fill="#EAA98B" cx="282.674" cy="504.132" rx="5.105" ry="7.045"/>
		<path class="Oberlippe" fill="#C9795B" d="M236.785,553.866c-12.927,0.228-23.559-4.2-24.172-9.985c0,0.129-0.032,0.291-0.032,0.421
			c0.097,6.011,10.955,10.664,24.205,10.438c13.25-0.228,23.914-5.301,23.817-11.312c0-0.129-0.032-0.29-0.032-0.42
			C260.182,548.824,249.712,553.641,236.785,553.866z"/>
		<g class="Mund">
			<path fill="none" stroke="#C9795B" stroke-width="0.3232" stroke-miterlimit="10" d="M218.461,550.99
				c0,0,5.268,2.165,8.854,12.021c3.619,9.856,10.471,7.207,10.471,7.207"/>
			<path fill="none" stroke="#C9795B" stroke-width="0.3232" stroke-miterlimit="10" d="M252.942,550.99
				c0,0-5.267,2.165-8.854,12.021c-3.62,9.856-10.471,7.207-10.471,7.207"/>
			<path fill="none" stroke="#C9795B" stroke-width="0.3232" stroke-miterlimit="10" d="M227.315,563.012
				c3.619,9.856,10.471,7.207,10.471,7.207"/>
		</g>
		<g class="Augenbraue-rechts">
			<path class="Augenbraue_x5F_rechs" d="M262.12,510.659c-2.132,0.323-4.039,0.905-5.332,2.554c0.905,0.097,1.648,0.354,2.294,0.679
				c1.131-0.775,2.488-1.422,4.04-1.777c3.683-0.808,5.137-0.453,5.525-0.322C268.001,511.565,264.738,510.272,262.12,510.659z"/>
		</g>
		<g class="Augenbraue-links">
			<path class="Augenbraue_x5F_links" d="M211.384,510.659c2.133,0.323,4.04,0.905,5.332,2.554c-0.905,0.097-1.648,0.354-2.295,0.679
				c-1.131-0.775-2.488-1.422-4.04-1.777c-3.684-0.808-5.138-0.453-5.526-0.322C205.502,511.565,208.767,510.272,211.384,510.659z"
				/>
		</g>
	</g>
	<path fill="#276D0A" d="M934.1,559.258c-42.522,3.833-85.597-1.474-128.671-3.269c-5.729,0-12.605-3.438-17.189-4.584
		c-41.257-8.021-79.075-8.021-119.188-14.897c-5.266-0.658-10.908-0.556-16.495,0.517c-0.791,11.96-32.362,21.58-71.222,21.58
		c-39.354,0-71.259-9.866-71.259-22.038c0-0.431,0.05-0.857,0.13-1.284c-14.237-0.089-28.321,0.202-41.708,4.664
		c-11.461,4.584-22.921,9.168-34.381,14.898c-11.46,6.876-27.504,5.729-42.403,8.021c-5.73,1.146-10.314,5.73-16.044,5.73
		c-23.535,1.021-46.159-1.611-69.498-5.45c0.205,0.682,0.323,1.372,0.323,2.07c0,12.172-31.903,22.039-71.258,22.039
		s-71.259-9.867-71.259-22.039c0-0.104,0.021-0.207,0.025-0.312c-7.222-5.214-13.796-9.875-23.267-7.77
		c-19.716,5.974-41.923,11.627-63.537,12.432L32.939,774.88h957.574L934.1,559.258z"/>
</g>
<g class="Ebene_2">
</g>
<g class="Ebene_3">
</g>
</svg>
