<?xml version="1.0" encoding="UTF-8"?>
<!DOCTYPE svg  PUBLIC '-//W3C//DTD SVG 1.1//EN'  'http://www.w3.org/Graphics/SVG/1.1/DTD/svg11.dtd'>
<svg id="hammer" width="70px" enable-background="new 0 0 595.717 328" version="1.1" viewBox="0 0 595.717 328" xml:space="preserve" xmlns="http://www.w3.org/2000/svg">
<rect transform="matrix(.9938 .1112 -.1112 .9938 21.166 -21.722)" x="182.82" y="113.89" width="45" height="130" stroke="#fff" stroke-miterlimit="10"/>
<path d="m557.52 259.71c18.898 1.969 35.706-5.57 37.958-25.709 2.263-20.225-11.563-37.972-30.83-40.126-1.1-0.123-2.242 0.313-3.315 0.191l-518.34-57.973c-1.074-0.12-2.098-0.798-3.198-0.921-19.269-2.155-36.7 12.294-38.962 32.521-2.262 20.225 12.373 31.241 31.641 33.396 0.083 0.01 0.314-0.067 0.314-0.067l-0.149 1.332 524.73 58.69 0.149-1.334z" fill="#4D714D"/>
<path d="m558.25 262.19c18.894 2.014 35.395-7.286 36.943-21.13 1.554-13.902-2.921-26.423-22.188-28.578-1.1-0.123-12.49-1.396-13.563-1.517l-518.33-57.975c-1.074-0.119-2.175-0.108-3.275-0.231-19.269-2.155-36.162 7.491-37.717 21.395-1.555 13.902 13.345 27.043 32.614 29.198 0.083 0.01 0.793 0.148 0.793 0.148l4e-3 -0.039 524.73 58.688-6e-3 0.041z" fill="#7FFF9F"/>
	<path d="m212.21 227.47c-2.75-0.308-5.637-2.256-8.455-4.582-0.906-0.32-1.692-1.346-2.4-2.508-7.063-7.329-12.629-20.23-11.091-33.979 2.302-20.583 19.511-34.607 30.214-33.411 2.697 0.302 4.866 0.613 6.303 2.787l3.2 0.165 9.971-84.354c3.102-30.847-33.356-60.882-81.824-66.305-48.681-5.445-92.889 13.561-96.324 44.271-0.196 1.752-0.39 3.484-0.582 5.196l-22.068 197.31c-0.191 1.711-0.346 3.095-0.542 4.849-3.435 30.711 34.683 60.533 83.363 65.979 48.681 5.443 91.505-14.563 94.94-45.272 0.015-0.135-0.194 1.677-0.195 1.677l0.45-4.021 4.993-50.674-2.373-0.265c-1.752 0.809-4.888 3.436-7.58 3.135z" fill="#1640DB"/>
	<path d="m212.19 228h-8e-3c-0.803 0-1.638-0.496-2.394-0.799-0.767-0.308-1.499-0.772-2.202-1.192-1.408-0.845-2.709-1.881-3.97-2.913l0.066 0.017c-0.617-0.231-1.082-0.684-1.479-1.139-0.396-0.462-0.729-0.967-1.042-1.474l0.03 0.037c-1.338-1.418-2.573-2.932-3.686-4.529-1.084-1.615-2.115-3.272-2.967-5.023-0.889-1.73-1.636-3.532-2.306-5.36-0.627-1.843-1.208-3.706-1.592-5.618-0.435-1.9-0.684-3.839-0.871-5.78-0.063-0.974-0.111-1.949-0.137-2.925 0.027-0.975-0.011-1.954 0.07-2.928 0.114-1.962 0.351-3.877 0.711-5.817 0.385-1.919 0.891-3.813 1.521-5.669 2.563-7.401 7.142-14.152 13.319-19.112 3.096-2.448 6.625-4.483 10.602-5.427 0.997-0.212 2.015-0.382 3.058-0.397 0.519-0.034 1.044 0.01 1.569 0.038 0.5 0.042 0.977 0.094 1.483 0.158 0.996 0.132 2.054 0.318 3.101 0.792 1.054 0.454 1.995 1.288 2.63 2.23l-0.861-0.492 3.202 0.117-1.198 1.011c1.639-15.72 3.286-31.438 5.037-47.145l2.682-23.554 1.379-11.771 0.176-1.472 0.044-0.367 0.028-0.304 0.061-0.737c0.075-0.981 0.099-1.838 0.096-2.804-0.011-1.88-0.174-3.76-0.48-5.619-1.233-7.457-4.722-14.485-9.408-20.557-4.7-6.088-10.517-11.341-16.884-15.791-12.799-8.88-27.698-14.659-43.04-17.786-15.372-3.078-31.322-3.647-46.892-1.458-7.776 1.132-15.463 2.968-22.831 5.69-7.348 2.741-14.388 6.418-20.508 11.287-6.09 4.843-11.249 11.055-13.898 18.36-0.661 1.817-1.174 3.688-1.506 5.591-0.327 1.886-0.473 3.865-0.691 5.832l-1.223 11.79-4.863 47.161-4.917 47.155-5.046 47.141-5.105 47.135c-0.2 1.967-0.472 3.954-0.542 5.774-0.073 1.824 0.01 3.71 0.248 5.548 0.47 3.695 1.568 7.312 3.111 10.741 3.108 6.875 7.978 12.956 13.625 18.142 5.656 5.208 12.128 9.545 18.945 13.216 6.833 3.656 14.064 6.602 21.502 8.872 7.438 2.282 15.087 3.882 22.813 4.873 7.731 1.004 15.545 1.354 23.335 1.063 7.789-0.285 15.56-1.245 23.152-2.995 7.59-1.732 15.022-4.256 21.943-7.809 6.891-3.563 13.339-8.158 18.327-14.104 2.487-2.964 4.592-6.254 6.127-9.805 0.769-1.773 1.395-3.611 1.859-5.49 0.227-0.939 0.424-1.889 0.58-2.845l0.104-0.72 0.052-0.359c0.596 0.031-1.297-0.325 1.343 0.025l-0.024 0.183-0.094 0.735-0.047 0.367-0.024 0.185c-0.288 0.314 0.611-0.445-0.652 0.754l-0.845 0.801 0.191-1.519c0.287-2.279 0.57-4.535 0.813-6.814l0.764-6.828 1.46-13.663 1.437-13.666 1.389-13.672 0.197 0.243-2.372-0.27 0.115-0.02c-1.208 0.601-2.357 1.426-3.606 2.063-0.623 0.323-1.268 0.617-1.95 0.827-0.343 0.102-0.692 0.347-1.049 0.398-0.359 0.045-0.722 0.186-1.087 0.186zm0.046-0.732c0.328 0.027 0.658 0.021 0.989-0.019 0.331-0.052 0.658-0.124 0.982-0.223 0.646-0.201 1.269-0.487 1.876-0.808 0.607-0.319 1.199-0.675 1.79-1.037 0.594-0.36 1.179-0.736 1.827-1.051l0.053-0.025 0.063 7e-3 2.374 0.261 0.218 0.022-0.021 0.222-1.306 13.679-1.258 13.684-1.235 13.687-0.584 6.847c-0.182 2.281-0.412 4.577-0.64 6.849l-0.653-0.717c-1.249 1.076-0.335 0.194-0.609 0.387l0.019-0.185 0.039-0.368 0.076-0.736 0.019-0.186c2.651 0.256 0.722 0.179 1.308 0.284l-0.045 0.375-0.09 0.749c-0.137 0.998-0.317 1.989-0.53 2.975-0.435 1.97-1.04 3.9-1.796 5.771-1.51 3.745-3.622 7.233-6.135 10.384-5.042 6.316-11.584 11.267-18.601 15.134-7.045 3.863-14.624 6.666-22.381 8.661-7.771 1.968-15.734 3.106-23.728 3.563-15.99 0.813-32.132-1.019-47.51-5.641-7.687-2.301-15.181-5.299-22.304-9.059-7.122-3.756-13.861-8.325-19.842-13.823-5.961-5.486-11.197-11.981-14.612-19.542-1.698-3.771-2.879-7.813-3.384-11.964-0.252-2.081-0.334-4.157-0.233-6.279 0.104-2.127 0.392-4.058 0.603-6.019l5.435-47.099 5.494-47.091 5.621-47.077 5.677-47.069 1.413-11.77c0.25-1.957 0.422-3.921 0.8-5.924 0.375-1.982 0.91-3.937 1.614-5.827 2.812-7.605 8.193-13.977 14.452-18.892 6.287-4.952 13.47-8.608 20.911-11.381 7.449-2.788 15.211-4.674 23.063-5.852 7.851-1.203 15.807-1.686 23.75-1.542 7.941 0.13 15.885 0.849 23.721 2.276 15.642 2.863 30.949 8.431 44.335 17.338 6.653 4.472 12.852 9.782 17.864 16.183 5.002 6.355 8.911 13.854 10.256 22.045 0.34 2.038 0.524 4.105 0.541 6.177 0.01 1.01-0.025 2.129-0.101 3.117l-0.059 0.738-0.04 0.436-0.043 0.368-0.172 1.472-1.403 11.769-2.884 23.529c-1.959 15.682-4.021 31.352-6.093 47.02l-0.143 1.082-1.056-0.069-3.198-0.212-0.563-0.037-0.298-0.455c-0.436-0.666-0.977-1.187-1.696-1.525-0.711-0.352-1.575-0.548-2.489-0.691-0.451-0.071-0.936-0.138-1.398-0.188-0.44-0.032-0.88-0.084-1.329-0.064-0.894-0.012-1.799 0.115-2.696 0.283-3.599 0.758-7.004 2.58-10.012 4.852-6.024 4.598-10.649 11.04-13.319 18.192-0.657 1.794-1.196 3.634-1.618 5.5-0.399 1.855-0.671 3.783-0.802 5.686-0.094 0.954-0.068 1.915-0.109 2.873 0.013 0.958 0.047 1.917 0.095 2.875 0.158 1.912 0.376 3.823 0.779 5.703 0.352 1.89 0.9 3.736 1.495 5.564 0.637 1.813 1.345 3.607 2.224 5.32 0.835 1.734 1.848 3.377 2.913 4.977 1.093 1.584 2.307 3.08 3.62 4.483l0.018 0.02 0.012 0.021c0.303 0.496 0.625 0.979 0.993 1.414 0.183 0.217 0.381 0.42 0.596 0.593 0.102 0.098 0.222 0.158 0.333 0.236 0.113 0.075 0.239 0.114 0.357 0.176l0.056 0.029 0.01 9e-3c1.247 1.029 2.531 2.016 3.906 2.849 0.688 0.415 1.399 0.789 2.139 1.089 0.743 0.296 1.48 0.514 2.289 0.612z" fill="#0A0094"/>
<path d="m233.68 68.775c-3.182 28.443-41.945 34.647-87.031 29.605-45.086-5.043-79.423-19.423-76.242-47.867 3.181-28.443 42.31-47.412 87.396-42.369 45.087 5.043 79.058 32.188 75.877 60.631z" fill="#051860"/>
<path d="m204.45 222.61s4e-3 -0.021 4e-3 -0.039l-4e-3 0.039z" fill="#7FFF9F"/>
</svg>
