<?xml version="1.0" encoding="utf-8"?>
<!-- Generator: Adobe Illustrator 22.0.1, SVG Export Plug-In . SVG Version: 6.00 Build 0)  -->
<svg version="1.1" xmlns="http://www.w3.org/2000/svg" xmlns:xlink="http://www.w3.org/1999/xlink" x="0px" y="0px"
	 viewBox="0 0 595.3 841.9" style="enable-background:new 0 0 595.3 841.9;" xml:space="preserve">
<style type="text/css">
	.st0{fill:#414042;}
	.st1{fill:#58595B;}
	.st2{opacity:0.32;fill:#939598;}
	.st3{fill:#EAA98B;}
	.st4{fill:none;stroke:#000000;stroke-miterlimit:10;}
	.st5{fill:#C9795B;}
</style>
<g id="Kopf">
	<g>
		<path class="st0" d="M495.5,538.8H33.1c0,0,3.1-43.1,29.4-60c26.2-16.9,33.1-28.1,26.9-61.9s1.2-63.1,31.2-106.2
			c30-43.1,9.6,4.7,9.6,4.7s-30.8-24.1-29.6-44.1c1.2-20,10.6-34.4,22.5-35.6c11.9-1.3,24.4,10.6,24.4,10.6s15-31.9,92.5-50.6
			c76.1-18.4,25.6-47.7,23.8-48.7c1.3,0.4,31.7,10.4,28.1,28.7c-3.8,18.8,8.8-16.2,34.4-8.1c25.6,8.1-29.4-6.9-13.8,23.1
			c0,0,12.5-16.2,37.5-4.4c0,0-17.5,0-22.5,10.3c-5,10.3,35.6-15.3,70,49.7l3.7,7.5c0,0,1.9-16.9,15.6-18.1
			c13.7-1.3,36.9,28.7,21.2,52.5c-15.6,23.7-23.8,8.7-8.1,35.6c15.6,26.9,48.7,67.5,23.7,128.1c0,0-9.4,6.2,13.1,36.9
			C489.2,519.4,495.5,538.8,495.5,538.8z"/>
		<path class="st1" d="M75.9,523.5c66.6,0,313.9-1.3,355.1-37.8c-1.4-6.8,12.7-43.5,12.7-43.5c23.4-56.8-7.6-94.9-22.2-120.1
			c-14.6-25.2-1.3-11.2,13.4-33.4c14.6-22.3-5.2-54.1-18.1-53c-12.9,1.2-22.2,20.8-22.2,20.8l-3.5-7c-32.2-60.9-70.3-36.9-65.6-46.5
			c4.7-9.7,23.1-17.2,23.1-17.2c-23.4-11.1-36.1,5-36.1,5c-14.6-28.1,37.8-15.5,13.8-23.1c-24-7.6-37.9,25.7-34.4,8.1
			c3.4-17.2-24.3-27.4-25.5-27.8c1.7,1,48.5,36.9-22.8,54.1c-72.6,17.6-93.5,50.7-93.5,50.7s-11.6-12-22.8-10.8
			c-11.1,1.2-21.4,11.5-22.6,30.3c-1,16.6,24.4,32.4,28.3,35.6c-0.4,0.6-0.9,1.3-1.4,2c-28.1,40.4-35.1,67.9-29.3,99.6
			c3,16.3,2.8,27-1.6,35.8C99.1,508.4,5.8,523.5,75.9,523.5z"/>
		<path class="st2" d="M147,246.1l1.2,1c3.3-5.6,26.4-31.6,95.7-48.3c68.4-16.6,34.5-41.9,25.6-47.6c10.8,10.1,19.9,28.4-33.6,41.4
			c-77.5,18.8-88.7,53.3-88.7,53.3"/>
		<path class="st3" d="M315.9,487.2c0,0-13.4,15.8-30.7,15.8c-17.3,0-46.1-17-46.1-17s-120.5,4.9-119.3-73.5
			c1.2-78.3,85-62.5,85-62.5s26.7-10.9,24.3-27.9c0,0,41.3,38.8,82.6,0c0,0,9.7,26.7,27.9,27.9c18.2,1.2,72.8-12.1,87.4,49.8
			C441.5,461.8,356.5,486,315.9,487.2z"/>
		<ellipse cx="279.6" cy="309.4" rx="48.6" ry="29.8"/>
		<ellipse class="st0" cx="272.5" cy="309.4" rx="48.6" ry="29.8"/>
		<g>
			<path class="st0" d="M188,319.3c6.4,1.5,12.2,3.3,16,6.4c-2.8-0.2-5.1-0.2-7.2,0c-3.4-1.7-7.5-3.4-12.1-4.6
				c-11.1-2.9-15.7-3-16.9-3C169.9,318,180,317.5,188,319.3z"/>
			<path class="st0" d="M189.1,322.2c6.6,0.3,12.6,1.1,16.8,3.6c-2.8,0.2-5.1,0.7-7,1.3c-3.6-1.1-7.9-2-12.7-2.4
				c-11.5-0.9-16-0.3-17.2,0C171,324.1,181,321.8,189.1,322.2z"/>
			<path class="st0" d="M354.2,320.7c-6.4,1.5-12.2,3.3-16,6.4c2.8-0.2,5.1-0.2,7.2,0c3.4-1.7,7.5-3.4,12.1-4.6
				c11.1-2.9,15.7-3,16.9-3C372.4,319.4,362.2,318.9,354.2,320.7z"/>
			<path class="st0" d="M353.1,323.7c-6.6,0.3-12.6,1.1-16.8,3.6c2.8,0.2,5.1,0.7,7,1.3c3.6-1.1,7.9-2,12.7-2.4
				c11.5-0.9,16-0.3,17.2,0C371.2,325.5,361.3,323.2,353.1,323.7z"/>
		</g>
		<ellipse cx="300.1" cy="310.8" rx="16.4" ry="6.3"/>
		<ellipse cx="246.3" cy="309.4" rx="16.4" ry="6.3"/>
		<path class="st4" d="M99.1,406.6c0,0,40.5-51.7,83.4-33.7"/>
		<path class="st4" d="M94,465.1c0,0,26.4-80,85.9-77.1"/>
		<path class="st4" d="M421.6,402.1c0,0-40.5-51.7-83.4-33.7"/>
		<path class="st4" d="M426.7,460.5c0,0-26.4-80-85.9-77.1"/>
		<ellipse class="st3" cx="137" cy="272.2" rx="15.8" ry="21.8"/>
		<ellipse class="st3" cx="415.2" cy="271.2" rx="15.8" ry="21.8"/>
		<path class="st5" d="M273.1,395.6c40,0.7,72.4,15.6,73.6,33.6c0-0.4,0.1-0.9,0.1-1.3c0.3-18.6-32.7-34.2-73.7-35
			c-41-0.7-74.5,13.7-74.9,32.3c0,0.4,0,0.9,0.1,1.3C200.2,408.6,233,394.8,273.1,395.6z"/>
	</g>
</g>
<g id="Augenbraue-rechts">
	<path d="M370.3,291.4c-5.6-3.5-11.3-6-17.7-4.8c1.9,2.1,3.2,4.2,4,6.3c4.2,0.5,8.7,1.7,13,4c10.2,5.6,13,9.3,13.6,10.5
		C382.3,305.4,377.3,295.8,370.3,291.4z"/>
</g>
<g id="Augenbraue-links">
	<path d="M183.5,287.6c5.6-3.5,11.3-6,17.7-4.8c-1.9,2.1-3.2,4.2-4,6.3c-4.2,0.5-8.7,1.7-13,4c-10.2,5.6-13,9.3-13.6,10.5
		C171.5,301.6,176.6,292,183.5,287.6z"/>
</g>
</svg>
